G75*
%MOIN*%
%OFA0B0*%
%FSLAX24Y24*%
%IPPOS*%
%LPD*%
%AMOC8*
5,1,8,0,0,1.08239X$1,22.5*
%
%ADD10C,0.0100*%
%ADD11R,0.0600X0.0600*%
%ADD12OC8,0.0600*%
%ADD13R,0.0827X0.0827*%
%ADD14R,0.2170X0.1180*%
%ADD15R,0.0400X0.1060*%
%ADD16R,0.4100X0.4120*%
%ADD17R,0.0860X0.0640*%
%ADD18R,0.1060X0.0440*%
%ADD19R,0.1480X0.0430*%
%ADD20R,0.0394X0.0551*%
%ADD21R,0.0551X0.0394*%
%ADD22R,0.0433X0.0394*%
%ADD23R,0.0394X0.0433*%
%ADD24C,0.1181*%
%ADD25C,0.0554*%
%ADD26R,0.0551X0.0709*%
%ADD27C,0.0787*%
%ADD28C,0.1266*%
%ADD29R,0.0276X0.0157*%
%ADD30C,0.0320*%
%ADD31R,0.0356X0.0356*%
%ADD32C,0.0160*%
%ADD33R,0.0500X0.0500*%
%ADD34C,0.0560*%
%ADD35C,0.0240*%
%ADD36C,0.0400*%
D10*
X004087Y013536D02*
X004874Y013536D01*
X005662Y013536D02*
X005662Y014323D01*
X004874Y014323D02*
X004087Y014323D01*
X004284Y014580D02*
X003300Y015898D01*
X004087Y015898D02*
X004874Y015898D01*
X005662Y015898D02*
X005662Y015111D01*
X004874Y015111D02*
X004087Y015111D01*
X003300Y014323D01*
X003300Y015111D02*
X004087Y015111D01*
X019299Y000851D02*
X019532Y000851D01*
X019416Y000851D02*
X019416Y000501D01*
X019713Y000559D02*
X019713Y000793D01*
X019772Y000851D01*
X019888Y000851D01*
X019947Y000793D01*
X019947Y000559D01*
X019888Y000501D01*
X019772Y000501D01*
X019713Y000559D01*
X020128Y000617D02*
X020303Y000617D01*
X020361Y000676D01*
X020361Y000793D01*
X020303Y000851D01*
X020128Y000851D01*
X020128Y000501D01*
D11*
X003445Y020319D03*
D12*
X004445Y020319D03*
X005445Y020319D03*
X006445Y020319D03*
X007445Y020319D03*
X008445Y020319D03*
X009445Y020319D03*
X010445Y020319D03*
X011445Y020319D03*
X012445Y020319D03*
X013445Y020319D03*
X014445Y020319D03*
X015445Y020319D03*
X016445Y020319D03*
X017445Y020319D03*
X018445Y020319D03*
X019445Y020319D03*
X020445Y020319D03*
X021445Y020319D03*
X022445Y020319D03*
X022445Y021319D03*
X021445Y021319D03*
X020445Y021319D03*
X019445Y021319D03*
X018445Y021319D03*
X017445Y021319D03*
X016445Y021319D03*
X015445Y021319D03*
X014445Y021319D03*
X013445Y021319D03*
X012445Y021319D03*
X011445Y021319D03*
X010445Y021319D03*
X009445Y021319D03*
X008445Y021319D03*
X007445Y021319D03*
X006445Y021319D03*
X005445Y021319D03*
X004445Y021319D03*
X003445Y021319D03*
X014000Y018445D03*
X014000Y017445D03*
X015000Y017445D03*
X015000Y018445D03*
X016000Y018445D03*
X016000Y017445D03*
X017000Y017445D03*
X017000Y018445D03*
X018000Y018445D03*
X019000Y018445D03*
X019000Y017445D03*
X018000Y017445D03*
X020000Y017445D03*
X020000Y018445D03*
X023902Y018709D03*
X023902Y017709D03*
X024902Y017709D03*
X024902Y018709D03*
X024902Y016709D03*
X023902Y016709D03*
D13*
X024461Y013615D03*
X024461Y011961D03*
X024461Y010307D03*
X022296Y010307D03*
X022296Y011961D03*
X022296Y013615D03*
X022296Y006095D03*
X022296Y004441D03*
X024461Y004441D03*
X024461Y006095D03*
D14*
X009008Y012251D03*
X009008Y016001D03*
D15*
X005624Y011260D03*
X004954Y011260D03*
X004284Y011260D03*
X003614Y011260D03*
X002944Y011260D03*
D16*
X004284Y014580D03*
D17*
X003751Y008024D03*
X005211Y008024D03*
D18*
X006646Y008023D03*
X006646Y006843D03*
D19*
X008055Y009599D03*
X010355Y009599D03*
D20*
X004579Y018457D03*
X003831Y018457D03*
X004205Y019323D03*
X021115Y017079D03*
X021863Y017079D03*
X021489Y016213D03*
D21*
X010504Y018339D03*
X009638Y018713D03*
X009638Y017965D03*
D22*
X011882Y017926D03*
X011882Y017256D03*
X007040Y018083D03*
X007040Y018752D03*
X002512Y018870D03*
X002512Y018201D03*
X022552Y018437D03*
X022552Y017768D03*
X022552Y017217D03*
X022552Y016548D03*
D23*
X022335Y019205D03*
X023004Y019205D03*
X003556Y019402D03*
X002886Y019402D03*
D24*
X015201Y010642D02*
X016382Y010642D01*
X019201Y010642D02*
X020382Y010642D01*
D25*
X020069Y015642D02*
X019515Y015642D01*
X013069Y015642D02*
X012515Y015642D01*
D26*
X021213Y015268D03*
X022552Y015268D03*
D27*
X015780Y002109D03*
X013780Y002109D03*
X011780Y002109D03*
X009780Y002109D03*
X007780Y002109D03*
X005780Y002109D03*
D28*
X008024Y005426D03*
X010024Y005426D03*
X011694Y005426D03*
X013694Y005426D03*
D29*
X021075Y018319D03*
X021075Y018575D03*
X021075Y018831D03*
X021744Y018831D03*
X021744Y018319D03*
D30*
X021489Y016213D02*
X019914Y016213D01*
X019792Y016091D01*
X019792Y015642D01*
X022276Y014244D02*
X022276Y013634D01*
X022296Y013615D01*
X022276Y014244D02*
X022355Y014323D01*
X022591Y014323D01*
X022552Y014363D01*
X022552Y015268D01*
X019638Y011961D02*
X018654Y011961D01*
X017670Y012945D01*
X016095Y012945D01*
X013339Y015701D01*
X012851Y015701D01*
X012792Y015642D01*
X012748Y015599D01*
X012748Y008811D01*
X010780Y006843D01*
X006646Y006843D01*
X006646Y006843D01*
X003299Y006843D01*
X002906Y007237D01*
X002906Y011222D01*
X002944Y011260D01*
X003614Y011260D02*
X003615Y011260D01*
X003615Y009205D01*
X003615Y008181D01*
X003751Y008181D01*
X003751Y008024D01*
X005358Y008171D02*
X005494Y008171D01*
X005819Y008496D01*
X006764Y008496D02*
X006764Y008103D01*
X006685Y008023D01*
X006646Y008023D01*
X006922Y009599D02*
X008055Y009599D01*
X007000Y010859D02*
X007000Y014481D01*
X008103Y015583D01*
X008132Y015583D01*
X008551Y016001D01*
X009008Y016001D02*
X009308Y015701D01*
X009363Y015701D01*
X009796Y015701D01*
X011567Y013930D01*
X011567Y010189D01*
X010977Y009599D01*
X010355Y009599D01*
X009914Y009599D01*
X007709Y011567D02*
X008393Y012251D01*
X009008Y012251D01*
X007000Y010859D02*
X006449Y010307D01*
X005111Y010307D01*
X004954Y010464D01*
X004954Y011260D01*
X005624Y011260D02*
X006134Y011252D01*
X004284Y011260D02*
X004284Y010426D01*
X004323Y010386D01*
X019638Y011961D02*
X019792Y011807D01*
X019792Y010981D01*
D31*
X022985Y016095D03*
X021725Y019284D03*
X011252Y019205D03*
X008260Y018575D03*
X005189Y018103D03*
X004874Y015898D03*
X004087Y015898D03*
X003300Y015898D03*
X003300Y015111D03*
X004087Y015111D03*
X004874Y015111D03*
X004874Y014323D03*
X004087Y014323D03*
X003300Y014323D03*
X003300Y013536D03*
X004087Y013536D03*
X004874Y013536D03*
X005662Y013536D03*
X005662Y014323D03*
X005662Y015111D03*
X005662Y015898D03*
X007709Y011567D03*
X006134Y011252D03*
X004323Y010386D03*
X003615Y009205D03*
X005819Y008496D03*
X006764Y008496D03*
X006922Y009599D03*
D32*
X012851Y015583D02*
X012792Y015642D01*
X013536Y016882D02*
X016437Y016882D01*
X017000Y017445D01*
X017000Y017473D01*
X020000Y018445D02*
X020126Y018319D01*
X021075Y018319D01*
X021095Y018300D01*
X021095Y017237D01*
X021115Y017217D01*
X021115Y017079D01*
X021863Y017079D02*
X021882Y017079D01*
X021961Y017158D01*
X022493Y017158D01*
X022552Y017217D01*
X022552Y017768D01*
X022433Y018319D02*
X022552Y018437D01*
X022433Y018319D02*
X021744Y018319D01*
X021075Y018575D02*
X020780Y018575D01*
X020150Y019205D01*
X011252Y019205D01*
X010622Y019441D02*
X009993Y019441D01*
X009638Y019087D01*
X009638Y018713D01*
X009540Y018811D01*
X009540Y018752D01*
X009441Y018654D01*
X009048Y018654D01*
X008969Y018575D01*
X008260Y018575D01*
X007788Y018575D01*
X007611Y018752D01*
X007040Y018752D01*
X007020Y018103D02*
X006685Y018103D01*
X006370Y018418D01*
X006370Y019205D01*
X006941Y019756D01*
X006941Y020800D01*
X007445Y021304D01*
X007445Y021319D01*
X006445Y021319D02*
X006437Y021319D01*
X005937Y020819D01*
X002709Y020819D01*
X001489Y019599D01*
X001489Y018890D01*
X002119Y018260D01*
X002453Y018260D01*
X002512Y018201D01*
X002847Y017867D01*
X004166Y017867D01*
X004579Y018280D01*
X004579Y018457D01*
X004579Y018241D01*
X004579Y018398D02*
X004579Y018457D01*
X005189Y018811D02*
X005189Y018103D01*
X005189Y018811D02*
X004678Y019323D01*
X004205Y019323D01*
X004126Y019402D01*
X003556Y019402D01*
X002886Y019402D02*
X002886Y019343D01*
X003083Y018870D02*
X002512Y018870D01*
X003083Y018870D02*
X003300Y018654D01*
X003496Y018457D01*
X003831Y018457D01*
X007020Y018103D02*
X007040Y018083D01*
X007099Y018024D01*
X009363Y018024D01*
X009422Y017965D01*
X009638Y017965D01*
X009638Y018083D01*
X010504Y018339D02*
X011469Y018339D01*
X011882Y017926D01*
X011902Y017945D01*
X012473Y017945D01*
X013536Y016882D01*
X010622Y019441D02*
X011410Y020229D01*
X011410Y020284D01*
X017445Y020319D02*
X017945Y020819D01*
X022788Y020819D01*
X023063Y020544D01*
X023063Y020071D01*
X023902Y019233D01*
X023902Y018709D01*
X024390Y018221D02*
X023339Y018221D01*
X023221Y018339D01*
X023221Y018969D01*
X023004Y019185D01*
X023004Y019205D01*
X022985Y019225D01*
X022985Y019520D01*
X022827Y019678D01*
X021331Y019678D01*
X021075Y019422D01*
X021075Y018831D01*
X021725Y019284D02*
X022276Y019284D01*
X022335Y019225D01*
X022335Y019205D01*
X024390Y018221D02*
X024902Y017709D01*
X022985Y016095D02*
X022552Y016528D01*
X022552Y016548D01*
X021489Y016213D02*
X021489Y015662D01*
X021213Y015386D01*
X021213Y015268D01*
X022133Y014574D02*
X022419Y014574D01*
X022355Y014638D02*
X023063Y013930D01*
X023063Y008448D01*
X022913Y008599D01*
X022630Y008716D01*
X022323Y008716D01*
X022040Y008599D01*
X021824Y008382D01*
X021706Y008099D01*
X021706Y007792D01*
X021824Y007509D01*
X022040Y007292D01*
X022323Y007175D01*
X022630Y007175D01*
X022913Y007292D01*
X023063Y007442D01*
X023063Y003930D01*
X022827Y003693D01*
X021725Y003693D01*
X021567Y003851D01*
X021567Y006056D01*
X018181Y009441D01*
X018181Y012433D01*
X020544Y012433D01*
X021489Y013378D01*
X021489Y013930D01*
X022197Y014638D01*
X022355Y014638D01*
X022578Y014415D02*
X021974Y014415D01*
X021816Y014257D02*
X022736Y014257D01*
X022733Y014208D02*
X022353Y014208D01*
X022353Y013672D01*
X022238Y013672D01*
X022238Y013557D01*
X021702Y013557D01*
X021702Y013177D01*
X021715Y013132D01*
X021738Y013091D01*
X021772Y013057D01*
X021813Y013033D01*
X021859Y013021D01*
X022238Y013021D01*
X022238Y013557D01*
X022353Y013557D01*
X022353Y013021D01*
X022733Y013021D01*
X022779Y013033D01*
X022820Y013057D01*
X022853Y013091D01*
X022877Y013132D01*
X022889Y013177D01*
X022889Y013557D01*
X022353Y013557D01*
X022353Y013672D01*
X022889Y013672D01*
X022889Y014052D01*
X022877Y014097D01*
X022853Y014138D01*
X022820Y014172D01*
X022779Y014196D01*
X022733Y014208D01*
X022876Y014098D02*
X022895Y014098D01*
X022889Y013940D02*
X023053Y013940D01*
X023063Y013781D02*
X022889Y013781D01*
X023063Y013623D02*
X022353Y013623D01*
X022238Y013623D02*
X021489Y013623D01*
X021489Y013781D02*
X021702Y013781D01*
X021702Y013672D02*
X022238Y013672D01*
X022238Y014208D01*
X021859Y014208D01*
X021813Y014196D01*
X021772Y014172D01*
X021738Y014138D01*
X021715Y014097D01*
X021702Y014052D01*
X021702Y013672D01*
X021702Y013464D02*
X021489Y013464D01*
X021416Y013306D02*
X021702Y013306D01*
X021710Y013147D02*
X021257Y013147D01*
X021099Y012989D02*
X023063Y012989D01*
X023063Y013147D02*
X022881Y013147D01*
X022889Y013306D02*
X023063Y013306D01*
X023063Y013464D02*
X022889Y013464D01*
X022353Y013464D02*
X022238Y013464D01*
X022238Y013306D02*
X022353Y013306D01*
X022353Y013147D02*
X022238Y013147D01*
X022238Y012554D02*
X021859Y012554D01*
X021813Y012542D01*
X021772Y012518D01*
X021738Y012485D01*
X021715Y012444D01*
X021702Y012398D01*
X021702Y012019D01*
X022238Y012019D01*
X022238Y012554D01*
X022238Y012513D02*
X022353Y012513D01*
X022353Y012554D02*
X022353Y012019D01*
X022238Y012019D01*
X022238Y011903D01*
X022353Y011903D01*
X022353Y011368D01*
X022733Y011368D01*
X022779Y011380D01*
X022820Y011404D01*
X022853Y011437D01*
X022877Y011478D01*
X022889Y011524D01*
X022889Y011903D01*
X022353Y011903D01*
X022353Y012019D01*
X022889Y012019D01*
X022889Y012398D01*
X022877Y012444D01*
X022853Y012485D01*
X022820Y012518D01*
X022779Y012542D01*
X022733Y012554D01*
X022353Y012554D01*
X022353Y012355D02*
X022238Y012355D01*
X022238Y012196D02*
X022353Y012196D01*
X022353Y012038D02*
X022238Y012038D01*
X022238Y011903D02*
X021702Y011903D01*
X021702Y011524D01*
X021715Y011478D01*
X021738Y011437D01*
X021772Y011404D01*
X021813Y011380D01*
X021859Y011368D01*
X022238Y011368D01*
X022238Y011903D01*
X022238Y011879D02*
X022353Y011879D01*
X022353Y011721D02*
X022238Y011721D01*
X022238Y011562D02*
X022353Y011562D01*
X022353Y011404D02*
X022238Y011404D01*
X021772Y011404D02*
X020502Y011404D01*
X020533Y011399D02*
X020433Y011413D01*
X019872Y011413D01*
X019872Y010722D01*
X021149Y010722D01*
X021140Y010793D01*
X021114Y010890D01*
X021075Y010984D01*
X021024Y011071D01*
X020963Y011151D01*
X020891Y011223D01*
X020811Y011284D01*
X020724Y011335D01*
X020630Y011373D01*
X020533Y011399D01*
X020862Y011245D02*
X023063Y011245D01*
X023063Y011087D02*
X021013Y011087D01*
X021098Y010928D02*
X023063Y010928D01*
X023063Y010770D02*
X022882Y010770D01*
X022877Y010790D02*
X022853Y010831D01*
X022820Y010865D01*
X022779Y010889D01*
X022733Y010901D01*
X022353Y010901D01*
X022353Y010365D01*
X022238Y010365D01*
X022238Y010250D01*
X021702Y010250D01*
X021702Y009870D01*
X021715Y009825D01*
X021738Y009784D01*
X021772Y009750D01*
X021813Y009726D01*
X021859Y009714D01*
X022238Y009714D01*
X022238Y010250D01*
X022353Y010250D01*
X022353Y009714D01*
X022733Y009714D01*
X022779Y009726D01*
X022820Y009750D01*
X022853Y009784D01*
X022877Y009825D01*
X022889Y009870D01*
X022889Y010250D01*
X022353Y010250D01*
X022353Y010365D01*
X022889Y010365D01*
X022889Y010745D01*
X022877Y010790D01*
X022889Y010611D02*
X023063Y010611D01*
X023063Y010453D02*
X022889Y010453D01*
X023063Y010294D02*
X022353Y010294D01*
X022238Y010294D02*
X021071Y010294D01*
X021075Y010301D02*
X021114Y010394D01*
X021140Y010491D01*
X021149Y010562D01*
X019872Y010562D01*
X019872Y010722D01*
X019712Y010722D01*
X019712Y011413D01*
X019151Y011413D01*
X019051Y011399D01*
X018953Y011373D01*
X018860Y011335D01*
X018772Y011284D01*
X018692Y011223D01*
X018621Y011151D01*
X018559Y011071D01*
X018509Y010984D01*
X018470Y010890D01*
X018444Y010793D01*
X018435Y010722D01*
X019712Y010722D01*
X019712Y010562D01*
X019872Y010562D01*
X019872Y009872D01*
X020433Y009872D01*
X020533Y009885D01*
X020630Y009911D01*
X020724Y009950D01*
X020811Y010000D01*
X020891Y010062D01*
X020963Y010133D01*
X021024Y010213D01*
X021075Y010301D01*
X021129Y010453D02*
X021702Y010453D01*
X021702Y010365D02*
X022238Y010365D01*
X022238Y010901D01*
X021859Y010901D01*
X021813Y010889D01*
X021772Y010865D01*
X021738Y010831D01*
X021715Y010790D01*
X021702Y010745D01*
X021702Y010365D01*
X021702Y010136D02*
X020965Y010136D01*
X020771Y009977D02*
X021702Y009977D01*
X021718Y009819D02*
X018181Y009819D01*
X018181Y009977D02*
X018812Y009977D01*
X018772Y010000D02*
X018860Y009950D01*
X018953Y009911D01*
X019051Y009885D01*
X019151Y009872D01*
X019712Y009872D01*
X019712Y010562D01*
X018435Y010562D01*
X018444Y010491D01*
X018470Y010394D01*
X018509Y010301D01*
X018559Y010213D01*
X018621Y010133D01*
X018692Y010062D01*
X018772Y010000D01*
X018619Y010136D02*
X018181Y010136D01*
X018181Y010294D02*
X018512Y010294D01*
X018454Y010453D02*
X018181Y010453D01*
X018181Y010611D02*
X019712Y010611D01*
X019712Y010453D02*
X019872Y010453D01*
X019872Y010611D02*
X021702Y010611D01*
X021709Y010770D02*
X021143Y010770D01*
X021702Y011562D02*
X018181Y011562D01*
X018181Y011404D02*
X019081Y011404D01*
X018721Y011245D02*
X018181Y011245D01*
X018181Y011087D02*
X018571Y011087D01*
X018486Y010928D02*
X018181Y010928D01*
X018181Y010770D02*
X018441Y010770D01*
X018181Y011721D02*
X021702Y011721D01*
X021702Y011879D02*
X018181Y011879D01*
X018181Y012038D02*
X021702Y012038D01*
X021702Y012196D02*
X018181Y012196D01*
X018181Y012355D02*
X021702Y012355D01*
X021766Y012513D02*
X020623Y012513D01*
X020782Y012672D02*
X023063Y012672D01*
X023063Y012830D02*
X020940Y012830D01*
X021499Y013940D02*
X021702Y013940D01*
X021715Y014098D02*
X021657Y014098D01*
X022238Y014098D02*
X022353Y014098D01*
X022353Y013940D02*
X022238Y013940D01*
X022238Y013781D02*
X022353Y013781D01*
X022825Y012513D02*
X023063Y012513D01*
X023063Y012355D02*
X022889Y012355D01*
X022889Y012196D02*
X023063Y012196D01*
X023063Y012038D02*
X022889Y012038D01*
X022889Y011879D02*
X023063Y011879D01*
X023063Y011721D02*
X022889Y011721D01*
X022889Y011562D02*
X023063Y011562D01*
X023063Y011404D02*
X022819Y011404D01*
X022353Y010770D02*
X022238Y010770D01*
X022238Y010611D02*
X022353Y010611D01*
X022353Y010453D02*
X022238Y010453D01*
X022238Y010136D02*
X022353Y010136D01*
X022353Y009977D02*
X022238Y009977D01*
X022238Y009819D02*
X022353Y009819D01*
X022873Y009819D02*
X023063Y009819D01*
X023063Y009977D02*
X022889Y009977D01*
X022889Y010136D02*
X023063Y010136D01*
X023063Y009660D02*
X018181Y009660D01*
X018181Y009502D02*
X023063Y009502D01*
X023063Y009343D02*
X018280Y009343D01*
X018438Y009185D02*
X023063Y009185D01*
X023063Y009026D02*
X018597Y009026D01*
X018755Y008868D02*
X023063Y008868D01*
X023063Y008709D02*
X022646Y008709D01*
X022307Y008709D02*
X018914Y008709D01*
X019072Y008551D02*
X021992Y008551D01*
X021834Y008392D02*
X019231Y008392D01*
X019389Y008234D02*
X021762Y008234D01*
X021706Y008075D02*
X019548Y008075D01*
X019706Y007917D02*
X021706Y007917D01*
X021720Y007758D02*
X019865Y007758D01*
X020023Y007600D02*
X021786Y007600D01*
X021891Y007441D02*
X020182Y007441D01*
X020340Y007283D02*
X022063Y007283D01*
X022238Y006688D02*
X021859Y006688D01*
X021813Y006676D01*
X021772Y006652D01*
X021738Y006619D01*
X021715Y006578D01*
X021702Y006532D01*
X021702Y006153D01*
X022238Y006153D01*
X022238Y006688D01*
X022238Y006649D02*
X022353Y006649D01*
X022353Y006688D02*
X022353Y006153D01*
X022238Y006153D01*
X022238Y006037D01*
X022353Y006037D01*
X022353Y005501D01*
X022733Y005501D01*
X022779Y005514D01*
X022820Y005537D01*
X022853Y005571D01*
X022877Y005612D01*
X022889Y005658D01*
X022889Y006037D01*
X022353Y006037D01*
X022353Y006153D01*
X022889Y006153D01*
X022889Y006532D01*
X022877Y006578D01*
X022853Y006619D01*
X022820Y006652D01*
X022779Y006676D01*
X022733Y006688D01*
X022353Y006688D01*
X022353Y006490D02*
X022238Y006490D01*
X022238Y006332D02*
X022353Y006332D01*
X022353Y006173D02*
X022238Y006173D01*
X022238Y006037D02*
X021702Y006037D01*
X021702Y005658D01*
X021715Y005612D01*
X021738Y005571D01*
X021772Y005537D01*
X021813Y005514D01*
X021859Y005501D01*
X022238Y005501D01*
X022238Y006037D01*
X022238Y006015D02*
X022353Y006015D01*
X022353Y005856D02*
X022238Y005856D01*
X022238Y005698D02*
X022353Y005698D01*
X022353Y005539D02*
X022238Y005539D01*
X021770Y005539D02*
X021567Y005539D01*
X021567Y005381D02*
X023063Y005381D01*
X023063Y005539D02*
X022821Y005539D01*
X022889Y005698D02*
X023063Y005698D01*
X023063Y005856D02*
X022889Y005856D01*
X022889Y006015D02*
X023063Y006015D01*
X023063Y006173D02*
X022889Y006173D01*
X022889Y006332D02*
X023063Y006332D01*
X023063Y006490D02*
X022889Y006490D01*
X022823Y006649D02*
X023063Y006649D01*
X023063Y006807D02*
X020816Y006807D01*
X020974Y006649D02*
X021768Y006649D01*
X021702Y006490D02*
X021133Y006490D01*
X021291Y006332D02*
X021702Y006332D01*
X021702Y006173D02*
X021450Y006173D01*
X021567Y006015D02*
X021702Y006015D01*
X021702Y005856D02*
X021567Y005856D01*
X021567Y005698D02*
X021702Y005698D01*
X021567Y005222D02*
X023063Y005222D01*
X023063Y005064D02*
X021567Y005064D01*
X021567Y004905D02*
X021709Y004905D01*
X021715Y004924D02*
X021702Y004878D01*
X021702Y004499D01*
X022238Y004499D01*
X022238Y004384D01*
X021702Y004384D01*
X021702Y004004D01*
X021715Y003958D01*
X021738Y003917D01*
X021772Y003884D01*
X021813Y003860D01*
X021859Y003848D01*
X022238Y003848D01*
X022238Y004384D01*
X022353Y004384D01*
X022353Y003848D01*
X022733Y003848D01*
X022779Y003860D01*
X022820Y003884D01*
X022853Y003917D01*
X022877Y003958D01*
X022889Y004004D01*
X022889Y004384D01*
X022353Y004384D01*
X022353Y004499D01*
X022238Y004499D01*
X022238Y005035D01*
X021859Y005035D01*
X021813Y005022D01*
X021772Y004999D01*
X021738Y004965D01*
X021715Y004924D01*
X021702Y004747D02*
X021567Y004747D01*
X021567Y004588D02*
X021702Y004588D01*
X021567Y004430D02*
X022238Y004430D01*
X022353Y004430D02*
X023063Y004430D01*
X023063Y004588D02*
X022889Y004588D01*
X022889Y004499D02*
X022889Y004878D01*
X022877Y004924D01*
X022853Y004965D01*
X022820Y004999D01*
X022779Y005022D01*
X022733Y005035D01*
X022353Y005035D01*
X022353Y004499D01*
X022889Y004499D01*
X022889Y004271D02*
X023063Y004271D01*
X023063Y004113D02*
X022889Y004113D01*
X022874Y003954D02*
X023063Y003954D01*
X022929Y003796D02*
X021623Y003796D01*
X021567Y003954D02*
X021717Y003954D01*
X021702Y004113D02*
X021567Y004113D01*
X021567Y004271D02*
X021702Y004271D01*
X022238Y004271D02*
X022353Y004271D01*
X022353Y004113D02*
X022238Y004113D01*
X022238Y003954D02*
X022353Y003954D01*
X022353Y004588D02*
X022238Y004588D01*
X022238Y004747D02*
X022353Y004747D01*
X022353Y004905D02*
X022238Y004905D01*
X022882Y004905D02*
X023063Y004905D01*
X023063Y004747D02*
X022889Y004747D01*
X023063Y006966D02*
X020657Y006966D01*
X020499Y007124D02*
X023063Y007124D01*
X023063Y007283D02*
X022890Y007283D01*
X023062Y007441D02*
X023063Y007441D01*
X023063Y008551D02*
X022961Y008551D01*
X019872Y009977D02*
X019712Y009977D01*
X019712Y010136D02*
X019872Y010136D01*
X019872Y010294D02*
X019712Y010294D01*
X019712Y010770D02*
X019872Y010770D01*
X019872Y010928D02*
X019712Y010928D01*
X019712Y011087D02*
X019872Y011087D01*
X019872Y011245D02*
X019712Y011245D01*
X019712Y011404D02*
X019872Y011404D01*
D33*
X003300Y018654D03*
D34*
X001882Y017237D02*
X000622Y018496D01*
X000622Y021174D01*
X001174Y021725D01*
X002276Y021725D01*
X002670Y021331D01*
X003433Y021331D01*
X003445Y021319D01*
X004445Y021319D01*
X001882Y017237D02*
X007315Y017237D01*
X008551Y016001D01*
X009008Y016001D01*
D35*
X009363Y015701D02*
X009678Y016016D01*
X009678Y016134D01*
X010386Y016843D01*
X011489Y016843D01*
X011882Y017237D01*
X011882Y017256D01*
D36*
X004874Y003851D02*
X004874Y001882D01*
X005504Y001331D01*
X009835Y001331D01*
X009936Y001432D01*
X009916Y001427D01*
X009825Y001415D01*
X009780Y001415D01*
X009780Y002109D01*
X009780Y002109D01*
X009780Y002802D01*
X009825Y002802D01*
X009916Y002790D01*
X010003Y002767D01*
X010071Y002739D01*
X010071Y004533D01*
X009846Y004533D01*
X009518Y004668D01*
X009267Y004920D01*
X009131Y005248D01*
X009131Y005603D01*
X009267Y005931D01*
X009518Y006183D01*
X009591Y006213D01*
X008524Y006213D01*
X008564Y006188D01*
X008646Y006122D01*
X008720Y006048D01*
X008786Y005966D01*
X008842Y005878D01*
X008887Y005783D01*
X008922Y005684D01*
X008945Y005582D01*
X008957Y005478D01*
X008957Y005442D01*
X008040Y005442D01*
X008007Y005442D01*
X008007Y005409D01*
X007091Y005409D01*
X007091Y005373D01*
X007102Y005269D01*
X007126Y005167D01*
X007160Y005068D01*
X007206Y004974D01*
X007261Y004885D01*
X007327Y004803D01*
X007401Y004729D01*
X007483Y004663D01*
X007572Y004608D01*
X007666Y004562D01*
X007765Y004528D01*
X007867Y004504D01*
X007971Y004493D01*
X008007Y004493D01*
X008007Y005409D01*
X008040Y005409D01*
X008040Y004493D01*
X008076Y004493D01*
X008180Y004504D01*
X008282Y004528D01*
X008381Y004562D01*
X008476Y004608D01*
X008564Y004663D01*
X008646Y004729D01*
X008720Y004803D01*
X008786Y004885D01*
X008842Y004974D01*
X008887Y005068D01*
X008922Y005167D01*
X008945Y005269D01*
X008957Y005373D01*
X008957Y005409D01*
X008040Y005409D01*
X008040Y005442D01*
X008040Y006213D01*
X008007Y006213D01*
X008007Y005442D01*
X007091Y005442D01*
X007091Y005478D01*
X007102Y005582D01*
X007126Y005684D01*
X007160Y005783D01*
X007206Y005878D01*
X007261Y005966D01*
X007327Y006048D01*
X007401Y006122D01*
X007483Y006188D01*
X007523Y006213D01*
X007237Y006213D01*
X004874Y003851D01*
X004874Y003737D02*
X010071Y003737D01*
X010071Y004135D02*
X005159Y004135D01*
X005557Y004534D02*
X007748Y004534D01*
X008007Y004534D02*
X008040Y004534D01*
X008299Y004534D02*
X009844Y004534D01*
X010071Y004481D02*
X010071Y004796D01*
X009261Y004932D02*
X008815Y004932D01*
X008952Y005331D02*
X009131Y005331D01*
X009183Y005729D02*
X008906Y005729D01*
X008640Y006128D02*
X009463Y006128D01*
X010071Y006213D02*
X010071Y005977D01*
X010071Y006213D02*
X008024Y006213D01*
X007552Y006213D01*
X007237Y005898D01*
X007141Y005729D02*
X006753Y005729D01*
X007095Y005331D02*
X006354Y005331D01*
X005956Y004932D02*
X007232Y004932D01*
X008007Y004932D02*
X008040Y004932D01*
X008040Y005331D02*
X008007Y005331D01*
X008024Y005426D02*
X008024Y006213D01*
X008007Y006128D02*
X008040Y006128D01*
X008040Y005729D02*
X008007Y005729D01*
X007407Y006128D02*
X007151Y006128D01*
X004874Y003338D02*
X010071Y003338D01*
X010071Y002940D02*
X004874Y002940D01*
X004874Y002541D02*
X005237Y002541D01*
X005257Y002567D02*
X005202Y002495D01*
X005156Y002416D01*
X005122Y002332D01*
X005098Y002244D01*
X005086Y002154D01*
X005086Y002109D01*
X005780Y002109D01*
X005780Y002109D01*
X005780Y002802D01*
X005825Y002802D01*
X005916Y002790D01*
X006003Y002767D01*
X006087Y002732D01*
X006166Y002687D01*
X006238Y002631D01*
X006303Y002567D01*
X006358Y002495D01*
X006403Y002416D01*
X006438Y002332D01*
X006462Y002244D01*
X006474Y002154D01*
X006474Y002109D01*
X005780Y002109D01*
X005780Y002802D01*
X005734Y002802D01*
X005644Y002790D01*
X005556Y002767D01*
X005472Y002732D01*
X005394Y002687D01*
X005322Y002631D01*
X005257Y002567D01*
X005086Y002143D02*
X004874Y002143D01*
X005086Y002109D02*
X005086Y002063D01*
X005098Y001973D01*
X005122Y001885D01*
X005156Y001801D01*
X005202Y001722D01*
X005257Y001650D01*
X005322Y001586D01*
X005394Y001531D01*
X005472Y001485D01*
X005556Y001450D01*
X005644Y001427D01*
X005734Y001415D01*
X005780Y001415D01*
X005825Y001415D01*
X005916Y001427D01*
X006003Y001450D01*
X006087Y001485D01*
X006166Y001531D01*
X006238Y001586D01*
X006303Y001650D01*
X006358Y001722D01*
X006403Y001801D01*
X006438Y001885D01*
X006462Y001973D01*
X006474Y002063D01*
X006474Y002109D01*
X005780Y002109D01*
X005780Y002109D01*
X005780Y002109D01*
X005086Y002109D01*
X005032Y001744D02*
X005189Y001744D01*
X005488Y001346D02*
X009849Y001346D01*
X009780Y001415D02*
X009780Y002109D01*
X009780Y002802D01*
X009734Y002802D01*
X009644Y002790D01*
X009556Y002767D01*
X009472Y002732D01*
X009394Y002687D01*
X009322Y002631D01*
X009257Y002567D01*
X009202Y002495D01*
X009156Y002416D01*
X009122Y002332D01*
X009098Y002244D01*
X009086Y002154D01*
X009086Y002109D01*
X009780Y002109D01*
X009780Y002109D01*
X009086Y002109D01*
X009086Y002063D01*
X009098Y001973D01*
X009122Y001885D01*
X009156Y001801D01*
X009202Y001722D01*
X009257Y001650D01*
X009322Y001586D01*
X009394Y001531D01*
X009472Y001485D01*
X009556Y001450D01*
X009644Y001427D01*
X009734Y001415D01*
X009780Y001415D01*
X009780Y001744D02*
X009780Y001744D01*
X009780Y002109D02*
X009780Y002109D01*
X009780Y002143D02*
X009780Y002143D01*
X009780Y002541D02*
X009780Y002541D01*
X009237Y002541D02*
X008323Y002541D01*
X008303Y002567D02*
X008238Y002631D01*
X008166Y002687D01*
X008087Y002732D01*
X008003Y002767D01*
X007916Y002790D01*
X007825Y002802D01*
X007780Y002802D01*
X007780Y002109D01*
X007780Y002109D01*
X007780Y002802D01*
X007734Y002802D01*
X007644Y002790D01*
X007556Y002767D01*
X007472Y002732D01*
X007394Y002687D01*
X007322Y002631D01*
X007257Y002567D01*
X007202Y002495D01*
X007156Y002416D01*
X007122Y002332D01*
X007098Y002244D01*
X007086Y002154D01*
X007086Y002109D01*
X007780Y002109D01*
X008474Y002109D01*
X008474Y002154D01*
X008462Y002244D01*
X008438Y002332D01*
X008403Y002416D01*
X008358Y002495D01*
X008303Y002567D01*
X008474Y002143D02*
X009086Y002143D01*
X009189Y001744D02*
X008370Y001744D01*
X008358Y001722D02*
X008403Y001801D01*
X008438Y001885D01*
X008462Y001973D01*
X008474Y002063D01*
X008474Y002109D01*
X007780Y002109D01*
X007780Y002109D01*
X007780Y002109D01*
X007086Y002109D01*
X007086Y002063D01*
X007098Y001973D01*
X007122Y001885D01*
X007156Y001801D01*
X007202Y001722D01*
X007257Y001650D01*
X007322Y001586D01*
X007394Y001531D01*
X007472Y001485D01*
X007556Y001450D01*
X007644Y001427D01*
X007734Y001415D01*
X007780Y001415D01*
X007825Y001415D01*
X007916Y001427D01*
X008003Y001450D01*
X008087Y001485D01*
X008166Y001531D01*
X008238Y001586D01*
X008303Y001650D01*
X008358Y001722D01*
X007780Y001744D02*
X007780Y001744D01*
X007780Y001415D02*
X007780Y002109D01*
X007780Y002109D01*
X007780Y001415D01*
X007189Y001744D02*
X006370Y001744D01*
X006474Y002143D02*
X007086Y002143D01*
X007237Y002541D02*
X006323Y002541D01*
X005780Y002541D02*
X005780Y002541D01*
X005780Y002143D02*
X005780Y002143D01*
X005780Y002109D02*
X005780Y001415D01*
X005780Y002109D01*
X005780Y002109D01*
X005780Y001744D02*
X005780Y001744D01*
X007780Y002143D02*
X007780Y002143D01*
X007780Y002541D02*
X007780Y002541D01*
X011646Y004481D02*
X011646Y004533D01*
X011871Y004533D01*
X012200Y004668D01*
X012451Y004920D01*
X012587Y005248D01*
X012587Y005603D01*
X012451Y005931D01*
X012200Y006183D01*
X011871Y006319D01*
X011671Y006319D01*
X014087Y008890D01*
X014087Y010937D01*
X014717Y011646D01*
X016922Y011646D01*
X017394Y011174D01*
X017394Y009284D01*
X014717Y006607D01*
X014717Y004638D01*
X014087Y004008D01*
X012119Y004008D01*
X011646Y004481D01*
X011725Y004559D02*
X011725Y004874D01*
X011874Y004534D02*
X013418Y004534D01*
X013435Y004528D02*
X013537Y004504D01*
X013641Y004493D01*
X013677Y004493D01*
X013677Y005409D01*
X012761Y005409D01*
X012761Y005373D01*
X012772Y005269D01*
X012796Y005167D01*
X012830Y005068D01*
X012876Y004974D01*
X012931Y004885D01*
X012997Y004803D01*
X013071Y004729D01*
X013153Y004663D01*
X013242Y004608D01*
X013336Y004562D01*
X013435Y004528D01*
X013677Y004534D02*
X013710Y004534D01*
X013710Y004493D02*
X013746Y004493D01*
X013850Y004504D01*
X013952Y004528D01*
X014051Y004562D01*
X014146Y004608D01*
X014234Y004663D01*
X014316Y004729D01*
X014390Y004803D01*
X014456Y004885D01*
X014512Y004974D01*
X014557Y005068D01*
X014592Y005167D01*
X014615Y005269D01*
X014627Y005373D01*
X014627Y005409D01*
X013710Y005409D01*
X013710Y004493D01*
X013969Y004534D02*
X014612Y004534D01*
X014717Y004932D02*
X014485Y004932D01*
X014622Y005331D02*
X014717Y005331D01*
X014627Y005442D02*
X014627Y005478D01*
X014615Y005582D01*
X014592Y005684D01*
X014557Y005783D01*
X014512Y005878D01*
X014456Y005966D01*
X014390Y006048D01*
X014316Y006122D01*
X014234Y006188D01*
X014146Y006244D01*
X014051Y006289D01*
X013952Y006324D01*
X013850Y006347D01*
X013746Y006359D01*
X013710Y006359D01*
X013710Y005442D01*
X013677Y005442D01*
X013677Y005409D01*
X013710Y005409D01*
X013710Y005442D01*
X014627Y005442D01*
X014576Y005729D02*
X014717Y005729D01*
X014717Y006128D02*
X014310Y006128D01*
X014717Y006526D02*
X011866Y006526D01*
X012240Y006925D02*
X015035Y006925D01*
X015433Y007323D02*
X012615Y007323D01*
X012989Y007722D02*
X015832Y007722D01*
X016230Y008120D02*
X013364Y008120D01*
X013738Y008519D02*
X016629Y008519D01*
X017027Y008917D02*
X014087Y008917D01*
X014087Y009316D02*
X017394Y009316D01*
X017394Y009714D02*
X014087Y009714D01*
X014530Y010054D02*
X014613Y009971D01*
X014705Y009900D01*
X014806Y009842D01*
X014914Y009797D01*
X015027Y009767D01*
X015143Y009752D01*
X015792Y009752D01*
X016441Y009752D01*
X016556Y009767D01*
X016669Y009797D01*
X016777Y009842D01*
X016878Y009900D01*
X016971Y009971D01*
X017053Y010054D01*
X017124Y010146D01*
X017183Y010247D01*
X017227Y010355D01*
X017258Y010468D01*
X017273Y010584D01*
X017273Y010642D01*
X015792Y010642D01*
X015792Y010642D01*
X015792Y009752D01*
X015792Y010642D01*
X015792Y010642D01*
X017273Y010642D01*
X017273Y010700D01*
X017258Y010816D01*
X017227Y010929D01*
X017183Y011037D01*
X017124Y011138D01*
X017053Y011231D01*
X016971Y011313D01*
X016878Y011384D01*
X016777Y011443D01*
X016669Y011487D01*
X016556Y011517D01*
X016441Y011533D01*
X015792Y011533D01*
X015792Y010642D01*
X015792Y010642D01*
X014311Y010642D01*
X014311Y010584D01*
X014326Y010468D01*
X014356Y010355D01*
X014401Y010247D01*
X014459Y010146D01*
X014530Y010054D01*
X014485Y010113D02*
X014087Y010113D01*
X014087Y010511D02*
X014320Y010511D01*
X014311Y010642D02*
X015792Y010642D01*
X015792Y010642D01*
X015792Y011533D01*
X015143Y011533D01*
X015027Y011517D01*
X014914Y011487D01*
X014806Y011443D01*
X014705Y011384D01*
X014613Y011313D01*
X014530Y011231D01*
X014459Y011138D01*
X014401Y011037D01*
X014356Y010929D01*
X014326Y010816D01*
X014311Y010700D01*
X014311Y010642D01*
X014351Y010910D02*
X014087Y010910D01*
X014416Y011308D02*
X014608Y011308D01*
X015792Y011308D02*
X015792Y011308D01*
X015792Y010910D02*
X015792Y010910D01*
X015792Y010511D02*
X015792Y010511D01*
X015792Y010113D02*
X015792Y010113D01*
X017098Y010113D02*
X017394Y010113D01*
X017394Y010511D02*
X017263Y010511D01*
X017233Y010910D02*
X017394Y010910D01*
X017260Y011308D02*
X016976Y011308D01*
X013677Y006359D02*
X013641Y006359D01*
X013537Y006347D01*
X013435Y006324D01*
X013336Y006289D01*
X013242Y006244D01*
X013153Y006188D01*
X013071Y006122D01*
X012997Y006048D01*
X012931Y005966D01*
X012876Y005878D01*
X012830Y005783D01*
X012796Y005684D01*
X012772Y005582D01*
X012761Y005478D01*
X012761Y005442D01*
X013677Y005442D01*
X013677Y006359D01*
X013693Y006213D02*
X011646Y006213D01*
X011646Y005898D01*
X012255Y006128D02*
X013077Y006128D01*
X012811Y005729D02*
X012535Y005729D01*
X012587Y005331D02*
X012765Y005331D01*
X012902Y004932D02*
X012456Y004932D01*
X011992Y004135D02*
X014214Y004135D01*
X013710Y004932D02*
X013677Y004932D01*
X013677Y005331D02*
X013710Y005331D01*
X013710Y005729D02*
X013677Y005729D01*
X013677Y006128D02*
X013710Y006128D01*
M02*
