%
M48
M72
T01C0.0236
T02C0.0354
T03C0.0400
T04C0.0512
T05C0.0551
T06C0.0630
T07C0.0787
T08C0.1102
T09C0.1181
%
T01
X5819Y8496
X6764Y8496
X6922Y9599
X6134Y11252
X7709Y11567
X5662Y13536
X4874Y13536
X4087Y13536
X3300Y13536
X3300Y14323
X4087Y14323
X4874Y14323
X4874Y15111
X4087Y15111
X3300Y15111
X3300Y15898
X4087Y15898
X4874Y15898
X5662Y15898
X5662Y15111
X5662Y14323
X5189Y18103
X3300Y18654
X8260Y18575
X11252Y19205
X4323Y10386
X3615Y9205
X21725Y19284
X23260Y15977
T02
X19792Y15642
X12792Y15642
T03
X14000Y17445
X14000Y18445
X15000Y18445
X15000Y17445
X16000Y17445
X16000Y18445
X17000Y18445
X17000Y17445
X18000Y17445
X18000Y18445
X19000Y18445
X20000Y18445
X20000Y17445
X19000Y17445
X19445Y20319
X18445Y20319
X17445Y20319
X16445Y20319
X15445Y20319
X14445Y20319
X13445Y20319
X12445Y20319
X11445Y20319
X10445Y20319
X9445Y20319
X8445Y20319
X7445Y20319
X6445Y20319
X5445Y20319
X4445Y20319
X3445Y20319
X3445Y21319
X4445Y21319
X5445Y21319
X6445Y21319
X7445Y21319
X8445Y21319
X9445Y21319
X10445Y21319
X11445Y21319
X12445Y21319
X13445Y21319
X14445Y21319
X15445Y21319
X16445Y21319
X17445Y21319
X18445Y21319
X19445Y21319
X20445Y21319
X21445Y21319
X22445Y21319
X22445Y20319
X21445Y20319
X20445Y20319
X23902Y18709
X23902Y17709
X24902Y17709
X24902Y18709
X24902Y16709
X23902Y16709
T04
X15780Y2109
X13780Y2109
X11780Y2109
X9780Y2109
X7780Y2109
X5780Y2109
T05
X22296Y4441
X22296Y6095
X24461Y6095
X24461Y4441
X24461Y10307
X24461Y11961
X24461Y13615
X22296Y13615
X22296Y11961
X22296Y10307
T06
X13159Y5426
X11759Y5426
X9959Y5426
X8559Y5426
T07
X15792Y10642
X19792Y10642
T08
X1528Y1528
X1528Y20819
X24363Y20819
X24363Y1528
T09
X22477Y2591
X22477Y7945
X24280Y8457
X24280Y15465
M30
