G75*
%MOIN*%
%OFA0B0*%
%FSLAX24Y24*%
%IPPOS*%
%LPD*%
%AMOC8*
5,1,8,0,0,1.08239X$1,22.5*
%
%ADD10C,0.1142*%
%ADD11R,0.0640X0.0640*%
%ADD12OC8,0.0640*%
%ADD13R,0.0867X0.0867*%
%ADD14C,0.1221*%
%ADD15C,0.1221*%
%ADD16C,0.0594*%
%ADD17C,0.0827*%
%ADD18C,0.1306*%
D10*
X001528Y001528D03*
X001528Y020819D03*
X024363Y020819D03*
X024363Y001528D03*
D11*
X003445Y020319D03*
D12*
X004445Y020319D03*
X005445Y020319D03*
X006445Y020319D03*
X007445Y020319D03*
X008445Y020319D03*
X009445Y020319D03*
X010445Y020319D03*
X011445Y020319D03*
X012445Y020319D03*
X013445Y020319D03*
X014445Y020319D03*
X015445Y020319D03*
X016445Y020319D03*
X017445Y020319D03*
X018445Y020319D03*
X019445Y020319D03*
X020445Y020319D03*
X021445Y020319D03*
X022445Y020319D03*
X022445Y021319D03*
X021445Y021319D03*
X020445Y021319D03*
X019445Y021319D03*
X018445Y021319D03*
X017445Y021319D03*
X016445Y021319D03*
X015445Y021319D03*
X014445Y021319D03*
X013445Y021319D03*
X012445Y021319D03*
X011445Y021319D03*
X010445Y021319D03*
X009445Y021319D03*
X008445Y021319D03*
X007445Y021319D03*
X006445Y021319D03*
X005445Y021319D03*
X004445Y021319D03*
X003445Y021319D03*
X014000Y018445D03*
X014000Y017445D03*
X015000Y017445D03*
X015000Y018445D03*
X016000Y018445D03*
X016000Y017445D03*
X017000Y017445D03*
X017000Y018445D03*
X018000Y018445D03*
X019000Y018445D03*
X019000Y017445D03*
X018000Y017445D03*
X020000Y017445D03*
X020000Y018445D03*
X023902Y018709D03*
X023902Y017709D03*
X024902Y017709D03*
X024902Y018709D03*
X024902Y016709D03*
X023902Y016709D03*
D13*
X024461Y013615D03*
X024461Y011961D03*
X024461Y010307D03*
X022296Y010307D03*
X022296Y011961D03*
X022296Y013615D03*
X022296Y006095D03*
X022296Y004441D03*
X024461Y004441D03*
X024461Y006095D03*
D14*
X022477Y007945D03*
X024280Y008457D03*
X022477Y002591D03*
X024280Y015465D03*
D15*
X020382Y010642D02*
X019201Y010642D01*
X016382Y010642D02*
X015201Y010642D01*
D16*
X013069Y015642D02*
X012515Y015642D01*
X019515Y015642D02*
X020069Y015642D01*
D17*
X015780Y002109D03*
X013780Y002109D03*
X011780Y002109D03*
X009780Y002109D03*
X007780Y002109D03*
X005780Y002109D03*
D18*
X008024Y005426D03*
X010024Y005426D03*
X011694Y005426D03*
X013694Y005426D03*
M02*
