G75*
%MOIN*%
%OFA0B0*%
%FSLAX24Y24*%
%IPPOS*%
%LPD*%
%AMOC8*
5,1,8,0,0,1.08239X$1,22.5*
%
%ADD10C,0.1142*%
%ADD11R,0.0640X0.0640*%
%ADD12OC8,0.0640*%
%ADD13R,0.0867X0.0867*%
%ADD14C,0.1221*%
%ADD15R,0.2210X0.1220*%
%ADD16R,0.0440X0.1100*%
%ADD17R,0.4140X0.4160*%
%ADD18R,0.0900X0.0680*%
%ADD19R,0.1100X0.0480*%
%ADD20R,0.1520X0.0470*%
%ADD21R,0.0434X0.0591*%
%ADD22R,0.0591X0.0434*%
%ADD23R,0.0473X0.0434*%
%ADD24R,0.0434X0.0473*%
%ADD25C,0.1221*%
%ADD26C,0.0594*%
%ADD27R,0.0591X0.0749*%
%ADD28C,0.0827*%
%ADD29C,0.0985*%
%ADD30R,0.0316X0.0197*%
D10*
X001528Y001528D03*
X001528Y020819D03*
X024363Y020819D03*
X024363Y001528D03*
D11*
X003445Y020319D03*
D12*
X004445Y020319D03*
X005445Y020319D03*
X006445Y020319D03*
X007445Y020319D03*
X008445Y020319D03*
X009445Y020319D03*
X010445Y020319D03*
X011445Y020319D03*
X012445Y020319D03*
X013445Y020319D03*
X014445Y020319D03*
X015445Y020319D03*
X016445Y020319D03*
X017445Y020319D03*
X018445Y020319D03*
X019445Y020319D03*
X020445Y020319D03*
X021445Y020319D03*
X022445Y020319D03*
X022445Y021319D03*
X021445Y021319D03*
X020445Y021319D03*
X019445Y021319D03*
X018445Y021319D03*
X017445Y021319D03*
X016445Y021319D03*
X015445Y021319D03*
X014445Y021319D03*
X013445Y021319D03*
X012445Y021319D03*
X011445Y021319D03*
X010445Y021319D03*
X009445Y021319D03*
X008445Y021319D03*
X007445Y021319D03*
X006445Y021319D03*
X005445Y021319D03*
X004445Y021319D03*
X003445Y021319D03*
X014000Y018445D03*
X014000Y017445D03*
X015000Y017445D03*
X015000Y018445D03*
X016000Y018445D03*
X016000Y017445D03*
X017000Y017445D03*
X017000Y018445D03*
X018000Y018445D03*
X018000Y017445D03*
X019000Y017445D03*
X020000Y017445D03*
X020000Y018445D03*
X019000Y018445D03*
X023902Y018709D03*
X023902Y017709D03*
X024902Y017709D03*
X024902Y018709D03*
X024902Y016709D03*
X023902Y016709D03*
D13*
X024461Y013615D03*
X024461Y011961D03*
X024461Y010307D03*
X022296Y010307D03*
X022296Y011961D03*
X022296Y013615D03*
X022296Y006095D03*
X022296Y004441D03*
X024461Y004441D03*
X024461Y006095D03*
D14*
X022477Y007945D03*
X024280Y008457D03*
X022477Y002591D03*
X024280Y015465D03*
D15*
X009008Y016001D03*
X009008Y012251D03*
D16*
X005624Y011260D03*
X004954Y011260D03*
X004284Y011260D03*
X003614Y011260D03*
X002944Y011260D03*
D17*
X004284Y014580D03*
D18*
X003751Y008024D03*
X005211Y008024D03*
D19*
X006646Y008023D03*
X006646Y006843D03*
D20*
X008055Y009599D03*
X010355Y009599D03*
D21*
X004579Y018457D03*
X003831Y018457D03*
X004205Y019323D03*
X021115Y017079D03*
X021863Y017079D03*
X021489Y016213D03*
D22*
X010504Y018339D03*
X009638Y018713D03*
X009638Y017965D03*
D23*
X011882Y017926D03*
X011882Y017256D03*
X007040Y018083D03*
X007040Y018752D03*
X002512Y018870D03*
X002512Y018201D03*
X022552Y017020D03*
X022552Y016351D03*
D24*
X022571Y017847D03*
X021902Y017847D03*
X022335Y019205D03*
X023004Y019205D03*
X003556Y019402D03*
X002886Y019402D03*
D25*
X015201Y010642D02*
X016382Y010642D01*
X019201Y010642D02*
X020382Y010642D01*
D26*
X020069Y015642D02*
X019515Y015642D01*
X013069Y015642D02*
X012515Y015642D01*
D27*
X021213Y015268D03*
X022552Y015268D03*
D28*
X015780Y002109D03*
X013780Y002109D03*
X011780Y002109D03*
X009780Y002109D03*
X007780Y002109D03*
X005780Y002109D03*
D29*
X008559Y005426D03*
X009959Y005426D03*
X011759Y005426D03*
X013159Y005426D03*
D30*
X021075Y018319D03*
X021075Y018575D03*
X021075Y018831D03*
X021744Y018831D03*
X021744Y018319D03*
M02*
