G75*
%MOIN*%
%OFA0B0*%
%FSLAX24Y24*%
%IPPOS*%
%LPD*%
%AMOC8*
5,1,8,0,0,1.08239X$1,22.5*
%
%ADD10R,0.2170X0.1180*%
%ADD11R,0.0400X0.1060*%
%ADD12R,0.4100X0.4120*%
%ADD13R,0.0860X0.0640*%
%ADD14R,0.1060X0.0440*%
%ADD15R,0.1480X0.0430*%
%ADD16R,0.0394X0.0551*%
%ADD17R,0.0551X0.0394*%
%ADD18R,0.0433X0.0394*%
%ADD19R,0.0394X0.0433*%
%ADD20R,0.0551X0.0709*%
%ADD21R,0.0276X0.0157*%
D10*
X009008Y012251D03*
X009008Y016001D03*
D11*
X005624Y011260D03*
X004954Y011260D03*
X004284Y011260D03*
X003614Y011260D03*
X002944Y011260D03*
D12*
X004284Y014580D03*
D13*
X003751Y008024D03*
X005211Y008024D03*
D14*
X006646Y006843D03*
X006646Y008023D03*
D15*
X008055Y009599D03*
X010355Y009599D03*
D16*
X004579Y018457D03*
X003831Y018457D03*
X004205Y019323D03*
X021115Y017079D03*
X021863Y017079D03*
X021489Y016213D03*
D17*
X010504Y018339D03*
X009638Y018713D03*
X009638Y017965D03*
D18*
X011882Y017926D03*
X011882Y017256D03*
X007040Y018083D03*
X007040Y018752D03*
X002512Y018870D03*
X002512Y018201D03*
X022552Y017020D03*
X022552Y016351D03*
D19*
X022571Y017847D03*
X021902Y017847D03*
X022335Y019205D03*
X023004Y019205D03*
X003556Y019402D03*
X002886Y019402D03*
D20*
X021213Y015268D03*
X022552Y015268D03*
D21*
X021744Y018319D03*
X021075Y018319D03*
X021075Y018575D03*
X021075Y018831D03*
X021744Y018831D03*
M02*
